{
  "accessors": [
    {
      "bufferView": 3,
      "componentType": 5126,
      "count": 2818,
      "max": [
        0.98034000396728516,
        0.97513997554779053,
        0.9799799919128418
      ],
      "min": [
        -0.98034000396728516,
        -0.97513997554779053,
        -0.9799799919128418
      ],
      "type": "VEC3"
    },
    {
      "bufferView": 3,
      "byteOffset": 33816,
      "componentType": 5126,
      "count": 2818,
      "max": [
        1,
        1,
        1
      ],
      "min": [
        -1,
        -1,
        -1
      ],
      "type": "VEC3"
    },
    {
      "bufferView": 4,
      "componentType": 5126,
      "count": 2818,
      "max": [
        0.99899321794509888,
        1,
        1,
        1
      ],
      "min": [
        -0.99899321794509888,
        -0.99268168210983276,
        -0.99845314025878906,
        -1
      ],
      "type": "VEC4"
    },
    {
      "bufferView": 2,
      "componentType": 5126,
      "count": 2818,
      "max": [
        1.1676199436187744,
        1.0031000375747681
      ],
      "min": [
        -0.16762000322341919,
        -0.14416000247001648
      ],
      "type": "VEC2"
    },
    {
      "bufferView": 1,
      "componentType": 5125,
      "count": 16896,
      "max": [
        2817
      ],
      "min": [
        0
      ],
      "type": "SCALAR"
    },
    {
      "bufferView": 3,
      "byteOffset": 67632,
      "componentType": 5126,
      "count": 2762,
      "max": [
        0.96815997362136841,
        0.9720500111579895,
        0.96797001361846924
      ],
      "min": [
        -0.96815997362136841,
        -0.9720500111579895,
        -0.96797001361846924
      ],
      "type": "VEC3"
    },
    {
      "bufferView": 3,
      "byteOffset": 100776,
      "componentType": 5126,
      "count": 2762,
      "max": [
        1,
        1,
        1
      ],
      "min": [
        -1,
        -1,
        -1
      ],
      "type": "VEC3"
    },
    {
      "bufferView": 1,
      "byteOffset": 67584,
      "componentType": 5125,
      "count": 15168,
      "max": [
        2761
      ],
      "min": [
        0
      ],
      "type": "SCALAR"
    },
    {
      "bufferView": 5,
      "componentType": 5126,
      "count": 2,
      "max": [
        1,
        0,
        0,
        0,
        0,
        1,
        0,
        0,
        0,
        1,
        1,
        0,
        0,
        0,
        0,
        1
      ],
      "min": [
        1,
        0,
        0,
        0,
        0,
        0,
        -1,
        0,
        0,
        0,
        0,
        0,
        0,
        0,
        0,
        1
      ],
      "type": "MAT4"
    },
    {
      "bufferView": 0,
      "componentType": 5123,
      "count": 2818,
      "max": [
        1,
        1,
        1,
        1
      ],
      "min": [
        1,
        1,
        1,
        1
      ],
      "type": "VEC4"
    },
    {
      "bufferView": 4,
      "byteOffset": 45088,
      "componentType": 5126,
      "count": 2818,
      "max": [
        1,
        0,
        0,
        0
      ],
      "min": [
        1,
        0,
        0,
        0
      ],
      "type": "VEC4"
    }
  ],
  "asset": {
    "extras": {
      "author": "brusbrusbrus (https://sketchfab.com/brusbrusbrus)",
      "license": "CC-BY-4.0 (http://creativecommons.org/licenses/by/4.0/)",
      "source": "https://sketchfab.com/3d-models/basketball-ball-9a5aa04685734080816743469a2efb30",
      "title": "basketball ball"
    },
    "generator": "Sketchfab-4.89.0",
    "version": "2.0"
  },
  "bufferViews": [
    {
      "buffer": 0,
      "byteLength": 22544,
      "byteOffset": 0,
      "byteStride": 8,
      "name": "shortBufferViews",
      "target": 34962
    },
    {
      "buffer": 0,
      "byteLength": 128256,
      "byteOffset": 22544,
      "name": "floatBufferViews",
      "target": 34963
    },
    {
      "buffer": 0,
      "byteLength": 22544,
      "byteOffset": 150800,
      "byteStride": 8,
      "name": "floatBufferViews",
      "target": 34962
    },
    {
      "buffer": 0,
      "byteLength": 133920,
      "byteOffset": 173344,
      "byteStride": 12,
      "name": "floatBufferViews",
      "target": 34962
    },
    {
      "buffer": 0,
      "byteLength": 90176,
      "byteOffset": 307264,
      "byteStride": 16,
      "name": "floatBufferViews",
      "target": 34962
    },
    {
      "buffer": 0,
      "byteLength": 128,
      "byteOffset": 397440,
      "byteStride": 64,
      "name": "floatBufferViews"
    }
  ],
  "buffers": [
    {
      "byteLength": 397568,
      "uri": "scene.bin"
    }
  ],
  "materials": [
    {
      "doubleSided": true,
      "name": "ball",
      "pbrMetallicRoughness": {
        "baseColorFactor": [
          0.23509307099999999,
          0.0373950308,
          0.0102811877,
          1
        ],
        "metallicFactor": 0,
        "roughnessFactor": 0.51391006100000003
      }
    },
    {
      "doubleSided": true,
      "name": "lines",
      "pbrMetallicRoughness": {
        "baseColorFactor": [
          0.074885670700000004,
          0.074885670700000004,
          0.074885670700000004,
          1
        ],
        "metallicFactor": 1,
        "roughnessFactor": 0.46512957319999998
      }
    }
  ],
  "meshes": [
    {
      "name": "Roundcube.001",
      "primitives": [
        {
          "attributes": {
            "JOINTS_0": 9,
            "NORMAL": 1,
            "POSITION": 0,
            "TANGENT": 2,
            "TEXCOORD_0": 3,
            "WEIGHTS_0": 10
          },
          "indices": 4,
          "material": 0,
          "mode": 4
        }
      ]
    },
    {
      "name": "Roundcube.000_0",
      "primitives": [
        {
          "attributes": {
            "NORMAL": 6,
            "POSITION": 5
          },
          "indices": 7,
          "material": 1,
          "mode": 4
        }
      ]
    }
  ],
  "nodes": [
    {
      "children": [
        1
      ],
      "name": "RootNode (gltf orientation matrix)",
      "rotation": [
        -0.70710678118654746,
        -0,
        -0,
        0.70710678118654757
      ]
    },
    {
      "children": [
        2
      ],
      "name": "RootNode (model correction matrix)"
    },
    {
      "children": [
        3
      ],
      "name": "Root"
    },
    {
      "children": [
        4,
        7,
        6
      ],
      "matrix": [
        1,
        0,
        0,
        0,
        0,
        1,
        0,
        0,
        0,
        0,
        1,
        0,
        0,
        0,
        0.98327999999999993,
        1
      ],
      "name": "Armature"
    },
    {
      "children": [
        5
      ],
      "name": "Armature_rootJoint"
    },
    {
      "name": "Bone_Armature",
      "rotation": [
        0.7071068286895752,
        0,
        0,
        0.7071068286895752
      ],
      "scale": [
        1,
        1,
        1
      ],
      "translation": [
        0,
        0,
        0
      ]
    },
    {
      "children": [
        8
      ],
      "name": "Roundcube.001"
    },
    {
      "mesh": 0,
      "name": "Roundcube.001_0",
      "skin": 0
    },
    {
      "children": [
        9
      ],
      "matrix": [
        0.99660000000000004,
        0,
        0,
        0,
        0,
        0.99660000000000004,
        0,
        0,
        0,
        0,
        0.99660000000000004,
        0,
        0,
        0,
        0,
        1
      ],
      "name": "Roundcube.000"
    },
    {
      "mesh": 1,
      "name": "Roundcube.000_0"
    }
  ],
  "scene": 0,
  "scenes": [
    {
      "name": "OSG_Scene",
      "nodes": [
        0
      ]
    }
  ],
  "skins": [
    {
      "inverseBindMatrices": 8,
      "joints": [
        4,
        5
      ],
      "skeleton": 4
    }
  ]
}

