{"accessors" : [{"bufferView" : 0, "byteOffset" : 0, "componentType" : 5123, "count" : 16272, "type" : "SCALAR", "max" : [11205], "min" : [0]}, {"bufferView" : 1, "byteOffset" : 0, "componentType" : 5126, "count" : 11206, "type" : "VEC3", "max" : [41.395580291748, 5.57100009918213, 15], "min" : [-18.6795806884766, -26.8999996185303, -0.0970000028610229]}, {"bufferView" : 1, "byteOffset" : 12, "componentType" : 5126, "count" : 11206, "type" : "VEC3", "max" : [1.00000441074371, 0.999714136123657, 1.00000441074371], "min" : [-1.00000441074371, -0.999717712402344, -1.00000441074371]}], "asset" : {"generator" : "Aspose.3D 20.1", "version" : "2.0"}, "buffers" : [{"uri" : "buffer.bin", "byteLength" : 301496}], "bufferViews" : [{"buffer" : 0, "byteOffset" : 0, "byteLength" : 32544, "target" : 34963}, {"buffer" : 0, "byteOffset" : 32548, "byteLength" : 268944, "byteStride" : 24, "target" : 34962}], "meshes" : [{"primitives" : [{"attributes" : {"POSITION" : 1, "NORMAL" : 2}, "indices" : 0, "mode" : 4}]}], "nodes" : [{"mesh" : 0, "name" : ""}], "scene" : 0, "scenes" : [{"nodes" : [0]}]}